<svg width="35" height="35" viewBox="0 0 35 35" fill="none" xmlns="http://www.w3.org/2000/svg">
<path d="M17.5 31.5L17.1464 31.8536C17.3417 32.0488 17.6583 32.0488 17.8535 31.8536L17.5 31.5ZM3.58287 17.5829L3.22932 17.9365L3.58287 17.5829ZM15.2495 5.91625L14.896 6.2698L15.2495 5.91625ZM17.5 8.16667L17.1464 8.52022C17.3417 8.71548 17.6583 8.71548 17.8535 8.52022L17.5 8.16667ZM19.7504 5.91624L19.3968 5.56269L19.7504 5.91624ZM17.8535 31.1464L3.93642 17.2294L3.22932 17.9365L17.1464 31.8536L17.8535 31.1464ZM31.0635 17.2294L17.1464 31.1464L17.8535 31.8536L31.7706 17.9365L31.0635 17.2294ZM14.896 6.2698L17.1464 8.52022L17.8535 7.81311L15.6031 5.56269L14.896 6.2698ZM17.8535 8.52022L20.1039 6.2698L19.3968 5.56269L17.1464 7.81311L17.8535 8.52022ZM25.5837 3C23.2632 3 21.0377 3.92183 19.3968 5.56269L20.1039 6.2698C21.5573 4.81647 23.5284 4 25.5837 4V3ZM33.3333 11.7496C33.3333 13.8049 32.5168 15.776 31.0635 17.2294L31.7706 17.9365C33.4115 16.2956 34.3333 14.0701 34.3333 11.7496H33.3333ZM34.3333 11.7496C34.3333 6.91732 30.416 3 25.5837 3V4C29.8637 4 33.3333 7.4696 33.3333 11.7496H34.3333ZM9.4162 4C11.4715 4 13.4427 4.81647 14.896 6.2698L15.6031 5.56269C13.9622 3.92183 11.7367 3 9.4162 3V4ZM1.66663 11.7496C1.66663 7.4696 5.13623 4 9.4162 4V3C4.58395 3 0.666626 6.91732 0.666626 11.7496H1.66663ZM3.93642 17.2294C2.48309 15.776 1.66663 13.8049 1.66663 11.7496H0.666626C0.666626 14.0701 1.58845 16.2956 3.22932 17.9365L3.93642 17.2294Z" fill="#2D8984"/>
</svg>
